# xmcd
#
# Track frame offsets: 
#        150
#        25305
#        50469
#        75892
#        101315
#        135020
#        168725
#        194007
#        219289
#        239223
#        259080
#        274811
#        290542
#        309678
#        328733
#        342770
#
# Disc length: 4589 seconds
#
# Revision: 0
# Processed by: cddbd v1.5.2PL0 Copyright (c) Steve Scherf et al.
# Submitted via: ExactAudioCopy v1.0b3
#
DISCID=e811eb10
DTITLE=Hal Leonard - Bass Play-Along Vol 31 - The 1970s
DYEAR=2010
DGENRE=Instructional
TTITLE0=All Right Now - Free - Demo
TTITLE1=All Right Now - Free - Play-Along
TTITLE2=Carry On Wayward Son - Kansas - Demo
TTITLE3=Carry On Wayward Son - Kansas - Play-Along
TTITLE4=Jessica - Allman Brothers - Demo
TTITLE5=Jessica - Allman Brothers - Play-Along
TTITLE6=Smoke on the Water - Deep Purple - Demo
TTITLE7=Smoke on the Water - Deep Purple - Play-Along
TTITLE8=Smokin' - Boston - Demo
TTITLE9=Smokin' - Boston - Play-Along
TTITLE10=Thirty Days in the Hole - Humble Pie - Demo
TTITLE11=Thirty Days in the Hole - Humble Pie - Play-Along
TTITLE12=Walk on the Wild Side - Lou Reed - Demo
TTITLE13=Walk on the Wild Side - Lou Reed - Play-Along
TTITLE14=Tuning Notes
TTITLE15=DATA
EXTD=
EXTT0=
EXTT1=
EXTT2=
EXTT3=
EXTT4=
EXTT5=
EXTT6=
EXTT7=
EXTT8=
EXTT9=
EXTT10=
EXTT11=
EXTT12=
EXTT13=
EXTT14=
EXTT15=
PLAYORDER=
